<?xml version="1.0" encoding="utf-8"?>
<!-- Generator: Adobe Illustrator 21.0.0, SVG Export Plug-In . SVG Version: 6.00 Build 0)  -->
<svg version="1.1" id="Layer_1" xmlns="http://www.w3.org/2000/svg" xmlns:xlink="http://www.w3.org/1999/xlink" x="0px" y="0px"
	 viewBox="0 0 256 256" style="enable-background:new 0 0 256 256;" xml:space="preserve">
<style type="text/css">
	.st0{fill:#120138;}
</style>
<path class="st0" d="M128,1c0.7,0,1.3,0,2,0c1.5,1,2.8,2.2,4.4,3.1c35.1,19.5,70.1,39.1,105.3,58.5c3.2,1.7,4.4,3.6,4.4,7.3
	c-0.1,39.5-0.1,79,0,118.5c0,3.6-1,5.6-4.2,7.4c-35.2,19.3-70.3,38.8-105.4,58.2c-1.5,0.9-2.9,2.1-4.4,3.1c-0.7,0-1.3,0-2,0
	c-1.5-1-2.8-2.2-4.4-3.1c-35.1-19.4-70.3-38.8-105.5-58.1c-3-1.6-4.2-3.3-4.2-6.9c0.1-39.7,0.1-79.3,0-119c0-3.4,1-5.3,4-7
	C53.3,43.5,88.4,23.8,123.6,4.1C125.2,3.2,126.5,2,128,1z M216.3,96.9c-1.4,0.5-1.9,0.6-2.3,0.8c-22.9,12.7-45.8,25.3-68.5,38.2
	c-1.6,0.9-2.8,4-2.8,6c-0.2,23.5-0.1,47-0.1,70.5c0,1.5,0.2,3.1,0.4,5.4c13.7-7.6,26.7-14.7,39.5-22c1.1-0.7,1.8-3,1.8-4.6
	c0.2-8.5,0.2-17,0-25.5c-0.1-3.4,0.9-5.4,4.1-7c8.3-4.3,16.4-8.9,24.5-13.6c1.4-0.8,3.4-2.4,3.4-3.7
	C216.4,126.7,216.3,112.1,216.3,96.9z M42.1,97.2c-0.2,1.1-0.5,1.7-0.5,2.3c0,13.3-0.1,26.7,0.1,40c0,1.6,1.7,3.8,3.3,4.7
	c9.2,5.4,18.6,10.3,27.8,15.8c1.6,0.9,3.1,3.5,3.1,5.3c0.3,8.8,0.3,17.7,0.1,26.5c-0.1,3.6,1.2,5.4,4.2,7c8.4,4.4,16.7,9.1,25,13.7
	c3,1.6,6,3.2,9.5,5.1c0.1-2.3,0.2-3.7,0.2-5.2c0-23.5-0.1-47,0.1-70.5c0-3.7-1.3-5.6-4.5-7.3C89.3,123,68,111.2,46.7,99.4
	C45.3,98.7,43.8,98,42.1,97.2z M56.1,73.3c24.3,13.4,47.4,26.2,70.7,38.8c1.4,0.8,4.2,0.1,5.8-0.8c21.6-11.8,43.2-23.8,64.7-35.8
	c1.2-0.7,2.3-1.5,4-2.7c-12.4-6.9-24.2-13.5-36-19.9c-1.2-0.6-3.5-0.1-4.9,0.6c-8.4,4.5-16.7,9-24.9,13.8c-3.4,2-6,2.3-9.5,0.2
	c-6.7-4.1-14-7.2-20.4-11.6c-6.6-4.6-12-4.6-18.8-0.1C77.4,62.1,67,67.2,56.1,73.3z"/>
</svg>
